<svg width="287" height="287" viewBox="0 0 287 287" fill="none" xmlns="http://www.w3.org/2000/svg">
<path fill-rule="evenodd" clip-rule="evenodd" d="M48.8963 0H238.104C264.944 0 287 22.0565 287 49.162V238.104C287 265.209 264.944 287 238.104 287H48.8963C22.0565 287 0 265.209 0 238.104V49.162C0 22.0565 22.0565 0 48.8963 0Z" fill="white"/>
<path d="M57.02 200.116C53.2305 201.774 49.9148 204.853 51.3358 209.827C52.52 214.09 56.7831 216.458 61.0463 215.511C79.5198 211.248 83.5461 190.879 84.2567 174.774C85.204 157.959 85.204 138.538 81.8883 121.959C81.1777 117.696 75.7304 115.09 71.7041 116.275C66.4936 117.932 65.7831 121.485 66.4936 126.222C67.9147 138.064 69.5725 162.458 67.9147 179.274C67.2041 188.037 65.3094 196.09 57.02 200.116ZM72.8883 89.7484C62.2305 89.7484 62.7042 106.327 72.8883 106.327C83.3093 106.327 83.5461 89.7484 72.8883 89.7484Z" fill="#08959A"/>
<path d="M148.44 161.037C137.072 169.09 113.388 164.59 115.046 148.722C158.151 167.669 178.756 119.353 149.861 104.906C111.967 86.1958 79.9934 146.116 109.835 172.643C123.335 184.485 148.44 184.721 160.993 170.985C168.809 162.458 155.782 151.564 148.44 161.037ZM117.414 131.906C121.677 122.906 128.783 117.696 136.835 117.696C152.23 117.696 147.967 133.327 138.493 135.932C133.046 137.827 123.572 135.459 117.414 131.906Z" fill="#08959A"/>
<path d="M184.914 179.748C189.414 179.748 192.73 176.195 192.73 171.695C194.151 140.906 195.335 109.88 196.756 79.0906C196.756 74.5906 192.73 70.5643 188.467 71.038C183.967 71.038 180.651 74.3538 180.414 79.0906C179.23 109.88 178.282 140.906 176.861 171.695C176.861 175.722 180.651 179.748 184.914 179.748Z" fill="#E58725"/>
<path d="M222.335 114.143C218.072 114.38 214.519 118.169 213.809 122.196C211.914 134.511 210.256 159.38 210.73 171.932C210.966 176.195 214.045 180.222 218.545 179.985C223.519 179.985 226.361 176.669 226.598 171.932C227.545 155.59 229.677 138.538 230.151 122.196C230.387 118.169 226.598 113.906 222.335 114.143ZM234.177 96.8536C233.229 85.4853 218.072 87.6168 218.308 96.8536C218.545 107.985 234.65 107.038 234.177 96.8536Z" fill="#E58725"/>
</svg>
